<svg xmlns="http://www.w3.org/2000/svg" width="28" height="28"><path d="M21.252 5.001c-.937 0-1.64.703-1.64 1.64 0 .938.703 1.642 1.64 1.642.938 0 1.641-.704 1.641-1.641S22.19 5 21.253 5M14.065 7.033c-3.75 0-6.876 3.047-6.876 6.876 0 3.75 3.048 6.876 6.876 6.876 3.751 0 6.876-3.048 6.876-6.876-.078-3.75-3.125-6.876-6.876-6.876m0 11.251A4.37 4.37 0 0 1 9.69 13.91a4.37 4.37 0 0 1 4.375-4.376 4.37 4.37 0 0 1 4.376 4.376 4.37 4.37 0 0 1-4.376 4.375"/><path d="M19.456 27.817H8.36C3.75 27.817 0 24.066 0 19.456V8.36C0 3.75 3.75 0 8.36 0h11.096c4.61 0 8.36 3.75 8.36 8.36v11.096c0 4.61-3.75 8.36-8.36 8.36M8.36 2.657A5.686 5.686 0 0 0 2.657 8.36v11.095A5.686 5.686 0 0 0 8.36 25.16h11.095a5.686 5.686 0 0 0 5.704-5.704V8.36a5.686 5.686 0 0 0-5.704-5.704z"/></svg>